# AST/ASF file generated using VICON BodyLanguage
# -----------------------------------------------
:version 1.10
:name VICON
:units
  mass 1.0
  length 0.45
  angle deg
:documentation
   .ast/.asf automatically generated from VICON data using
   VICON BodyBuilder and BodyLanguage model FoxedUp or BRILLIANT.MOD
:root
   order TX TY TZ RX RY RZ
   axis XYZ
   position 0 0 0  
   orientation 0 0 0 
:bonedata
  begin
     id 1 
     name lhipjoint
     direction 0.612567 -0.751349 0.245431 
     length 2.42285 
     axis 0 0 0  XYZ
  end
  begin
     id 2 
     name lfemur
     direction 0.34202 -0.939693 0  
     length 7.11304  
     axis 0 0 20  XYZ
    dof rx ry rz
    limits (-160.0 20.0)
           (-70.0 70.0)
           (-60.0 70.0)
  end
  begin
     id 3 
     name ltibia
     direction 0.34202 -0.939693 0   
     length 7.84529   
     axis 0 0 20   XYZ
    dof rx
    limits (-10.0 170.0)
  end
  begin
     id 4 
     name lfoot
     direction 0.0779239 -0.214094 0.9737   
     length 1.97176   
     axis -90 7.62852e-016 20   XYZ
    dof rx rz
    limits (-45.0 90.0)
           (-70.0 20.0)
  end
  begin
     id 5 
     name ltoes
     direction 1.53565e-011 -4.21709e-011 1   
     length 0.993197   
     axis -90 7.62852e-016 20   XYZ
    dof rx
    limits (-90.0 20.0)
  end
  begin
     id 6 
     name rhipjoint
     direction -0.665722 -0.709315 0.231701   
     length 2.56642  
     axis 0 0 0  XYZ 
  end
  begin
     id 7 
     name rfemur
     direction -0.34202 -0.939693 0   
     length 7.32108   
     axis 0 0 -20   XYZ
    dof rx ry rz
    limits (-160.0 20.0)
           (-70.0 70.0)
           (-70.0 60.0)
  end
  begin
     id 8 
     name rtibia
     direction -0.34202 -0.939693 0   
     length 7.81254   
     axis 0 0 -20   XYZ
    dof rx
    limits (-10.0 170.0)
 end
 begin
     id 9 
     name rfoot
     direction -0.0832806 -0.228812 0.969902   
     length 2.08278  
     axis -90 -7.62852e-016 -20   XYZ
    dof rx rz
    limits (-45.0 90.0)
           (-20.0 70.0)
  end
  begin
     id 10 
     name rtoes
     direction -1.53589e-011 -4.22086e-011 1   
     length 1.04609   
     axis -90 -7.62852e-016 -20   XYZ
    dof rx
    limits (-90.0 20.0)
  end
  begin
     id 11 
     name lowerback
     direction -0.00506013 0.988403 -0.151766   
     length 2.01978   
     axis 0 0 0   XYZ
    dof rx ry rz
    limits (-20.0 45.0)
           (-30.0 30.0)
           (-30.0 30.0)
  end
  begin
     id 12 
     name upperback
     direction -0.00836389 0.99968 0.0238859   
     length 2.01276   
     axis 0 0 0   XYZ
    dof rx ry rz
    limits (-20.0 45.0)
           (-30.0 30.0)
           (-30.0 30.0)
  end
  begin
     id 13 
     name thorax
     direction -0.00684136 0.995386 0.0957043   
     length 2.07303   
     axis 0 0 0   XYZ
    dof rx ry rz
    limits (-20.0 45.0)
           (-30.0 30.0)
           (-30.0 30.0)
  end
  begin
     id 14 
     name lowerneck
     direction -0.0161045 0.999661 0.0204485   
     length 1.91243   
     axis 0 0 0   XYZ
    dof rx ry rz
    limits (-20.0 45.0)
           (-30.0 30.0)
           (-30.0 30.0)
  end
  begin
     id 15 
     name upperneck
     direction 0.0553583 0.990946 -0.122319   
     length 1.91574   
     axis 0 0 0   XYZ
    dof rx ry rz
    limits (-20.0 45.0)
           (-30.0 30.0)
           (-30.0 30.0)
  end
  begin
     id 16
     name head
     direction 0.0180273 0.998839 -0.0446756  
     length 1.92693  
     axis 0 0 0   XYZ
    dof rx ry rz
    limits (-20.0 45.0)
           (-30.0 30.0)
           (-30.0 30.0)
  end
  begin
     id 17 
     name lclavicle
     direction 0.945646 0.319323 -0.0615358  
     length 4.0076  
     axis 0 0 0   XYZ
    dof ry rz
    limits (-20.0 10.0)
           (0.0 20.0)
  end
  begin
     id 18 
     name lhumerus
     direction 1 -4.48967e-011 -2.79996e-027   
     length 5.64147   
     axis 180 -30 -90   XYZ
    dof rx ry rz
    limits (-60.0 90.0)
           (-90.0 90.0)
           (-90.0 90.0)
  end
  begin
     id 19
     name lradius
     direction 1 -4.48976e-011 -9.5122e-027   
     length 2.86444   
     axis 180 -30 -90   XYZ
    dof rx
    limits (-10.0 170.0)
  end
  begin
     id 20
     name lwrist
     direction 1 -4.48983e-011 -1.24047e-026   
     length 1.43222   
     axis 9.05591e-015 90 90   XYZ
    dof ry
    limits (-180.0 0.0)
 end
  begin
     id 21 
     name lhand
     direction 1 -4.4892e-011 -2.48094e-026   
     length 0.722123   
     axis 1.58305e-014 90 90   XYZ
    dof rx rz
    limits (-90.0 90.0)
           (-45.0 45.0)
  end
  begin
     id 22 
     name lfingers
     direction 1 -4.48895e-011 -4.96187e-026   
     length 0.582194   
     axis 3.1661e-014 90 90   XYZ
    dof rx
    limits (0.0 90.0)
  end
  begin
     id 23
     name lthumb
     direction 0.707107 -6.34961e-011 0.707107   
     length 0.835918   
     axis -90 45 2.85299e-015   XYZ
    dof rx rz
    limits (-45.0 45.0)
           (-45.0 45.0)
  end
  begin
     id 24 
     name rclavicle
     direction -0.932635 0.324218 -0.15835   
     length 3.65819  
     axis 0 0 0   XYZ 
    dof ry rz
    limits (-10.0 20.0)
           (-20.0 0.0)
  end
  begin
     id 25 
     name rhumerus
     direction -1 -4.48965e-011 -4.02296e-027  
     length 5.44729   
     axis 180 30 90   XYZ
    dof rx ry rz
    limits (-90.0 60.0)
           (-90.0 90.0)
           (-90.0 90.0)
  end
  begin
     id 26 
     name rradius
     direction -1 -4.48957e-011 -8.81087e-027   
     length 3.08821   
     axis 180 30 90   XYZ
    dof rx
    limits (-10.0 170.0)
  end
  begin
     id 27 
     name rwrist
     direction -1 -4.49015e-011 -1.24047e-026   
     length 1.5441   
     axis 9.05591e-015 -90 -90   XYZ
    dof ry
    limits (-180.0 0.0)
  end
  begin
     id 28
     name rhand
     direction -1 -4.4891e-011 -2.48094e-026   
     length 0.821049   
     axis 1.58305e-014 -90 -90   XYZ
    dof rx rz
    limits (-90.0 90.0)
           (-45.0 45.0)
  end
  begin
     id 29
     name rfingers
     direction -1 -4.48985e-011 -4.96187e-026   
     length 0.661951   
     axis 3.1661e-014 -90 -90   XYZ
    dof rx
    limits (0.0 90.0)
  end
  begin
     id 30
     name rthumb
     direction -0.707107 -6.34906e-011 0.707107   
     length 0.950433   
     axis -90 -45 -2.85299e-015   XYZ
    dof rx rz
    limits (-45.0 45.0)
           (-45.0 45.0)
  end
:hierarchy
  begin
    root lhipjoint rhipjoint lowerback
    lhipjoint lfemur
    lfemur ltibia
    ltibia lfoot
    lfoot ltoes
    rhipjoint rfemur
    rfemur rtibia
    rtibia rfoot
    rfoot rtoes
    lowerback upperback
    upperback thorax
    thorax lowerneck lclavicle rclavicle
    lowerneck upperneck
    upperneck head
    lclavicle lhumerus
    lhumerus lradius
    lradius lwrist
    lwrist lhand lthumb
    lhand lfingers
    rclavicle rhumerus
    rhumerus rradius
    rradius rwrist
    rwrist rhand rthumb
    rhand rfingers
  end

#!OML:ASF F:\VICON\USERDATA\INSTALL\rory3\rory3.ASF
:FULLY-SPECIFIED
:DEGREES
646
root 13.1046 17.4252 15.4409 -178.079 -3.37022 -181.142
lowerback 1.50605 0.869901 6.09016
upperback 3.82403 0.961798 -0.0472278
thorax 3.2219 0.590049 -3.45173
lowerneck -4.2557 2.62825 0.450691
upperneck 14.3531 3.64876 -5.01662
head 5.11157 1.258 -1.44458
rclavicle 3.27995e-015 -1.11319e-014
rhumerus -30.7045 -2.90065 -71.566
rradius 29.9717
rwrist 14.9839
rhand -5.47224 11.672
rfingers 7.12502
rthumb 20.3396 -17.2829
lclavicle 3.27995e-015 -1.11319e-014
lhumerus -33.1747 -1.78229 81.6172
lradius 23.198
lwrist 29.6644
lhand -15.0366 10.6383
lfingers 7.12502
lthumb 11.1294 40.3231
rfemur -2.53631 -13.1722 25.1785
rtibia 20.5528
rfoot -31.2284 -15.4987
rtoes -3.61952
lfemur -25.462 7.38186 -23.9419
ltibia 31.9039
lfoot -10.588 -1.92949
ltoes -7.56935
647
root 13.1025 17.4254 15.427 -178.063 -4.03908 -181.152
lowerback 1.59137 0.873942 6.07617
upperback 3.77223 0.980321 -0.0787815
thorax 3.12171 0.59728 -3.47783
lowerneck -4.36216 2.54367 0.457931
upperneck 14.4865 3.54069 -5.03962
head 5.16831 1.1986 -1.45839
rclavicle -5.66536e-015 7.15625e-015
rhumerus -30.5409 -2.91096 -71.9937
rradius 30.1893
rwrist 14.8077
rhand -5.73162 11.1743
rfingers 7.12502
rthumb 20.0903 -17.807
lclavicle -5.66536e-015 7.15625e-015
lhumerus -33.3501 -1.32167 81.7403
lradius 22.613
lwrist 29.2176
lhand -14.6276 10.5479
lfingers 7.12502
lthumb 11.5239 40.2111
rfemur -2.34999 -13.3459 25.2274
rtibia 20.2799
rfoot -31.4772 -15.8687
rtoes -3.23188
lfemur -25.6056 7.36754 -23.8871
ltibia 31.4552
lfoot -10.6684 -1.75335
ltoes -7.23642
648
root 13.1031 17.4284 15.4119 -178.031 -4.68321 -181.19
lowerback 1.63362 0.881555 5.98075
upperback 3.74194 0.99827 -0.0855169
thorax 3.06548 0.602707 -3.4318
lowerneck -4.4005 2.4581 0.351648
upperneck 14.4955 3.43535 -5.02201
head 5.17259 1.14288 -1.44114
rclavicle 7.25564e-015 1.66979e-014
rhumerus -30.3809 -2.80956 -72.4066
rradius 30.4506
rwrist 14.6593
rhand -5.88171 10.966
rfingers 7.12502
rthumb 19.9461 -18.0303
lclavicle 7.25564e-015 1.66979e-014
lhumerus -33.5483 -0.727702 81.8582
lradius 22.1569
lwrist 28.7593
lhand -14.4762 10.6389
lfingers 7.12502
lthumb 11.6699 40.2939
rfemur -2.22303 -13.3581 25.2763
rtibia 20.1095
rfoot -32.0702 -15.7419
rtoes -0.63194
lfemur -25.6444 7.27383 -23.818
ltibia 30.8452
lfoot -10.6519 -1.65363
ltoes -5.25834
649
root 13.1041 17.4309 15.3893 -178.127 -5.32621 -181.346
lowerback 1.72751 0.868609 5.79023
upperback 3.76224 0.988775 -0.145561
thorax 3.02867 0.593025 -3.38847
lowerneck -4.37577 2.37703 0.231458
upperneck 14.4543 3.32843 -4.94702
head 5.14949 1.09225 -1.4043
rclavicle 8.54774e-015 -3.18055e-015
rhumerus -30.2082 -2.55564 -73.0106
rradius 30.6913
rwrist 14.647
rhand -6.45406 10.2303
rfingers 7.12502
rthumb 19.3958 -18.8223
lclavicle 8.54774e-015 -3.18055e-015
lhumerus -33.7864 -0.404309 82.0474
lradius 21.7934
lwrist 28.8376
lhand -14.618 10.6845
lfingers 7.12502
lthumb 11.5331 40.3472
rfemur -1.91465 -13.2633 25.1724
rtibia 19.9981
rfoot -32.5652 -16.0881
rtoes -0.205466
lfemur -25.4683 7.1789 -23.876
ltibia 30.1144
lfoot -10.6289 -1.40946
ltoes -4.82809
650
root 13.1024 17.4354 15.3563 -178.296 -5.866 -181.828
lowerback 1.81543 0.946904 5.30329
upperback 3.84193 1.1009 -0.339041
thorax 3.06392 0.640525 -3.31488
lowerneck -4.37945 2.23377 0.2564
upperneck 14.4294 3.12942 -4.88427
head 5.13616 1.00443 -1.40018
rclavicle -4.77083e-015 1.51076e-014
rhumerus -30.1209 -2.11372 -73.7893
rradius 31.0715
rwrist 14.0707
rhand -7.34418 8.96881
rfingers 7.12502
rthumb 18.5398 -20.1677
lclavicle -4.77083e-015 1.51076e-014
lhumerus -33.9565 -0.491231 82.3432
lradius 21.3308
lwrist 29.0741
lhand -14.5655 10.4143
lfingers 7.12502
lthumb 11.5838 40.0742
rfemur -1.39243 -13.3937 24.6023
rtibia 19.8068
rfoot -33.1824 -15.8679
rtoes 1.84005
lfemur -25.1414 7.27451 -24.3431
ltibia 29.3639
lfoot -10.6677 -1.19629
ltoes -4.95181
651
root 13.0995 17.4381 15.3278 -178.381 -6.35314 -182.224
lowerback 1.93976 1.01806 4.87921
upperback 3.86974 1.20631 -0.498527
thorax 3.02419 0.68317 -3.24245
lowerneck -4.3647 2.10821 0.219205
upperneck 14.3549 2.95746 -4.80382
head 5.10418 0.929547 -1.37865
rclavicle -4.96962e-015 1.82882e-014
rhumerus -29.9635 -2.18619 -74.3315
rradius 31.3276
rwrist 13.5325
rhand -7.76188 8.50947
rfingers 7.12502
rthumb 18.1379 -20.6648
lclavicle -4.96962e-015 1.82882e-014
lhumerus -34.1829 -0.0575352 82.4178
lradius 20.9379
lwrist 28.8071
lhand -14.2677 10.3448
lfingers 7.12502
lthumb 11.871 39.9883
rfemur -0.961165 -13.6229 24.1267
rtibia 19.5441
rfoot -33.8297 -15.227
rtoes 5.34002
lfemur -24.9373 7.45617 -24.7646
ltibia 28.6139
lfoot -10.6955 -0.993912
ltoes -5.56918
652
root 13.0978 17.4384 15.3077 -178.428 -6.88581 -181.993
lowerback 2.08042 1.01539 5.08492
upperback 3.84017 1.21126 -0.488147
thorax 2.92065 0.688382 -3.34983
lowerneck -4.33538 2.04745 0.11046
upperneck 14.2225 2.87506 -4.68046
head 5.05294 0.899804 -1.32664
rclavicle -4.77083e-015 2.38542e-015
rhumerus -29.639 -2.61553 -74.7264
rradius 31.3389
rwrist 13.5292
rhand -7.55449 8.78569
rfingers 7.12502
rthumb 18.3375 -20.37
lclavicle -4.77083e-015 2.38542e-015
lhumerus -34.4658 1.02232 82.1953
lradius 20.541
lwrist 27.9715
lhand -13.9132 10.0733
lfingers 7.12502
lthumb 12.2128 39.6968
rfemur -0.679407 -13.5228 24.4544
rtibia 19.2272
rfoot -33.8889 -16.0075
rtoes 4.23069
lfemur -24.9731 7.52479 -24.493
ltibia 27.9457
lfoot -10.7261 -0.778078
ltoes -6.76868
653
root 13.0943 17.4397 15.2847 -178.4 -7.4802 -181.8
lowerback 2.06829 1.01389 5.2427
upperback 3.82749 1.2105 -0.477289
thorax 2.91872 0.692702 -3.42711
lowerneck -4.28549 1.96184 0.0510836
upperneck 14.0137 2.76377 -4.62371
head 4.97568 0.857652 -1.30498
rclavicle -4.47266e-014 9.93923e-015
rhumerus -29.2783 -2.81509 -75.1896
rradius 31.3807
rwrist 13.4957
rhand -7.26239 8.75823
rfingers 7.12502
rthumb 18.6185 -20.3708
lclavicle -4.47266e-014 9.93923e-015
lhumerus -34.7433 1.95387 82.0966
lradius 20.2144
lwrist 27.06
lhand -13.7644 9.93761
lfingers 7.12502
lthumb 12.3562 39.5525
rfemur -0.415961 -13.5496 24.7445
rtibia 18.8136
rfoot -33.8039 -16.9081
rtoes 2.43941
lfemur -25.1801 7.44832 -24.2646
ltibia 27.4251
lfoot -10.7758 -0.571697
ltoes -6.25762
654
root 13.094 17.4355 15.2627 -178.345 -8.11515 -181.636
lowerback 2.07764 1.05642 5.29706
upperback 3.791 1.27101 -0.434589
thorax 2.88198 0.723353 -3.41326
lowerneck -4.2104 1.81458 -0.0478997
upperneck 13.8279 2.56692 -4.542
head 4.89859 0.771838 -1.27405
rclavicle 1.08338e-014 -1.51076e-014
rhumerus -29.0167 -2.75959 -75.6388
rradius 31.5442
rwrist 13.2237
rhand -7.32881 8.38641
rfingers 7.12502
rthumb 18.5546 -20.7487
lclavicle 1.08338e-014 -1.51076e-014
lhumerus -35.0705 2.21248 82.3941
lradius 20.0081
lwrist 26.7541
lhand -13.8203 10.029
lfingers 7.12502
lthumb 12.3024 39.6471
rfemur -0.138301 -13.7938 24.9929
rtibia 18.3339
rfoot -33.8949 -17.2628
rtoes 2.16034
lfemur -25.4975 7.71303 -24.1627
ltibia 26.9954
lfoot -10.7361 -0.6602
ltoes -6.41894
